<?xml version="1.0" standalone="no"?>
<!DOCTYPE svg PUBLIC "-//W3C//DTD SVG 20010904//EN"
 "http://www.w3.org/TR/2001/REC-SVG-20010904/DTD/svg10.dtd">
<svg version="1.0" xmlns="http://www.w3.org/2000/svg"
 width="157.000000pt" height="157.000000pt" viewBox="0 0 157.000000 157.000000"
 preserveAspectRatio="xMidYMid meet">
<metadata>
Created by potrace 1.14, written by Peter Selinger 2001-2017
</metadata>
<g transform="translate(0.000000,157.000000) scale(0.100000,-0.100000)"
fill="#000000" stroke="none">
<path d="M5 1322 c-2 -2 0 -14 5 -25 5 -12 43 -121 85 -242 42 -121 89 -256
105 -300 15 -44 61 -173 100 -288 l73 -207 146 0 146 0 92 268 c50 147 132
386 182 531 50 146 91 265 91 266 0 0 -69 0 -152 0 l-153 0 -12 -40 c-7 -22
-52 -179 -99 -350 -48 -171 -90 -313 -94 -317 -4 -6 -118 375 -200 672 l-10
35 -151 0 c-83 0 -152 -1 -154 -3z"/>
<path d="M1279 1325 c-1 0 -2 -146 -3 -325 -3 -404 -9 -445 -73 -481 -35 -20
-119 -18 -186 6 -27 9 -50 15 -52 13 -2 -2 -17 -54 -34 -116 l-29 -113 47 -23
c80 -41 214 -53 336 -31 59 11 152 63 184 104 86 110 96 172 96 636 l0 330
-142 0 c-79 0 -144 0 -144 0z"/>
</g>
</svg>
